<svg xmlns="http://www.w3.org/2000/svg" width="1440" height="9" fill="none" viewBox="0 0 1440 9"><path stroke="#FDF5E0" d="m1 8 10.576-4.176 11.724-.11 8.287 3.214 9.145-3.215 33.12-.699 9.205 3.914 12.737-3.01 34.528-.205 23.081 3.215 230.981-3.215s-.971-2.143 35.219-2.143c36.191 0 72.381 5.358 72.381 5.358l91.819-3.215 18.685-2.143 126.323 1.242 18.014 3.392L758.577 1l18.045 2.282 43.948.431 62.556 2.144 77.079-2.144h345.185l81.91 2.144 5.6 1.324 4.47-2.798 5.46.854 4.54 1.962 6.05-2.385 27.58-1.1"/></svg>